<?xml version="1.0" standalone="no"?>
<!DOCTYPE svg PUBLIC "-//W3C//DTD SVG 20010904//EN"
 "http://www.w3.org/TR/2001/REC-SVG-20010904/DTD/svg10.dtd">
<svg version="1.0" xmlns="http://www.w3.org/2000/svg"
 width="900.000000pt" height="900.000000pt" viewBox="0 0 900.000000 900.000000"
 preserveAspectRatio="xMidYMid meet">
<metadata>
Created by potrace 1.10, written by Peter Selinger 2001-2011
</metadata>
<g transform="translate(0.000000,900.000000) scale(0.100000,-0.100000)"
fill="#000000" stroke="none">
<path d="M360 8985 c0 -8 -12 -17 -27 -20 -25 -6 -84 -32 -133 -61 -24 -13
-111 -100 -124 -124 -24 -41 -54 -107 -65 -141 -16 -51 -16 -8247 0 -8298 11
-34 41 -100 65 -141 13 -24 100 -111 124 -124 41 -24 107 -54 141 -65 51 -16
8247 -16 8298 0 34 11 100 41 141 65 24 13 111 100 124 124 29 49 55 108 61
133 3 15 12 27 20 27 13 0 15 489 15 4130 0 3641 -2 4130 -15 4130 -8 0 -17
12 -20 28 -6 24 -32 83 -61 132 -13 24 -100 111 -124 124 -49 29 -108 55 -132
61 -16 3 -28 12 -28 20 0 13 -489 15 -4130 15 -3641 0 -4130 -2 -4130 -15z
m6032 -834 c6 -5 12 -915 8 -1188 0 -10 -77 -13 -347 -14 -328 0 -406 -4 -563
-28 -120 -18 -206 -59 -281 -134 -50 -49 -68 -78 -104 -162 -33 -79 -38 -157
-39 -650 l-1 -490 640 -5 640 -5 0 -655 0 -655 -640 -5 -640 -5 -5 -1670 -5
-1670 -670 0 -670 0 -5 1670 -5 1670 -560 5 c-308 3 -561 6 -563 8 -1 1 -1
296 0 655 l3 652 560 5 560 5 6 615 c3 438 9 625 17 650 7 19 12 54 12 78 0
24 5 53 11 64 6 11 15 44 19 72 4 28 12 65 18 81 6 17 18 55 27 85 18 60 26
78 80 190 53 110 80 154 160 260 109 144 279 291 421 365 37 19 72 39 78 43 6
5 31 16 56 26 25 10 57 24 72 32 14 8 36 14 48 14 12 0 34 6 48 14 31 16 107
36 172 45 25 4 51 11 59 15 36 23 370 34 866 29 281 -3 513 -8 517 -12z"/>
</g>
</svg>
