<?xml version="1.0" standalone="no"?>
<!DOCTYPE svg PUBLIC "-//W3C//DTD SVG 20010904//EN"
 "http://www.w3.org/TR/2001/REC-SVG-20010904/DTD/svg10.dtd">
<svg version="1.0" xmlns="http://www.w3.org/2000/svg"
 width="900.000000pt" height="900.000000pt" viewBox="0 0 900.000000 900.000000"
 preserveAspectRatio="xMidYMid meet">
<metadata>
Created by potrace 1.10, written by Peter Selinger 2001-2011
</metadata>
<g transform="translate(0.000000,900.000000) scale(0.100000,-0.100000)"
fill="#000000" stroke="none">
<path d="M503 8988 c1 -6 -14 -16 -33 -21 -214 -56 -401 -242 -456 -453 -21
-83 -21 -7965 0 -8048 55 -210 242 -397 452 -452 83 -21 7965 -21 8048 0 211
55 397 242 453 456 5 19 15 34 21 32 9 -1 12 952 12 3988 0 3036 -3 3989 -12
3988 -6 -2 -16 13 -21 32 -55 210 -244 402 -445 454 -27 7 -46 17 -44 24 1 9
-877 12 -3988 12 -3036 0 -3989 -3 -3987 -12z m5177 -1937 c426 -46 720 -172
960 -411 199 -200 327 -453 384 -765 37 -203 41 -334 41 -1385 0 -1051 -4
-1182 -41 -1385 -54 -295 -188 -566 -369 -750 -84 -85 -282 -235 -311 -235 -4
0 -15 -6 -23 -13 -17 -15 -139 -67 -211 -90 -149 -49 -258 -70 -455 -89 -201
-19 -2129 -19 -2330 0 -444 42 -735 164 -984 413 -248 248 -373 545 -413 984
-18 199 -18 2131 0 2330 17 190 40 306 89 455 134 409 444 719 853 853 187 61
277 76 640 101 25 2 497 2 1050 1 720 -1 1038 -5 1120 -14z"/>
<path d="M3525 6595 c-249 -12 -295 -17 -430 -52 -79 -20 -216 -72 -236 -89
-8 -8 -18 -14 -22 -14 -15 0 -99 -64 -154 -117 -56 -55 -143 -164 -143 -179 0
-4 -6 -15 -14 -23 -16 -19 -69 -156 -89 -231 -52 -192 -67 -518 -67 -1400 0
-882 15 -1208 67 -1400 20 -75 73 -212 89 -231 8 -8 14 -19 14 -23 0 -13 84
-120 130 -166 46 -46 153 -130 166 -130 4 0 15 -6 23 -14 20 -17 156 -69 236
-89 199 -52 512 -67 1400 -67 871 0 1228 17 1384 66 25 8 53 14 64 14 31 0
208 90 272 138 239 181 350 427 376 827 16 256 23 1522 10 1895 -12 334 -22
435 -57 575 -20 77 -73 215 -90 236 -8 8 -14 18 -14 22 0 3 -14 27 -32 53 -48
71 -160 179 -235 227 -70 44 -205 107 -230 107 -8 0 -35 6 -61 14 -97 29 -255
46 -522 56 -364 13 -1508 10 -1835 -5z m2478 -447 c51 -25 120 -95 148 -149
31 -61 31 -197 0 -258 -32 -62 -88 -119 -145 -149 -70 -36 -198 -37 -266 -3
-61 31 -117 86 -148 146 -36 69 -37 197 -3 265 47 92 132 157 221 170 65 10
149 0 193 -22z m-1263 -354 c486 -106 848 -422 1005 -879 50 -144 65 -242 65
-425 0 -125 -5 -190 -19 -257 -93 -444 -382 -797 -792 -966 -190 -78 -291 -97
-513 -97 -186 0 -253 10 -411 62 -157 53 -263 109 -395 209 -251 191 -421 467
-494 799 -22 101 -23 402 -1 498 65 282 172 487 354 675 183 191 404 311 696
381 90 21 408 21 505 0z"/>
<path d="M4330 5335 c-166 -31 -307 -104 -436 -227 -134 -128 -215 -279 -249
-463 -52 -285 39 -570 247 -771 203 -196 477 -280 753 -229 175 32 314 104
443 229 133 129 214 279 247 461 52 285 -39 570 -247 771 -94 91 -198 156
-318 198 -120 43 -306 56 -440 31z"/>
</g>
</svg>
