<?xml version="1.0" standalone="no"?>
<!DOCTYPE svg PUBLIC "-//W3C//DTD SVG 20010904//EN"
 "http://www.w3.org/TR/2001/REC-SVG-20010904/DTD/svg10.dtd">
<svg version="1.0" xmlns="http://www.w3.org/2000/svg"
 width="500.000000pt" height="500.000000pt" viewBox="0 0 500.000000 500.000000"
 preserveAspectRatio="xMidYMid meet">

<g transform="translate(0.000000,500.000000) scale(0.100000,-0.100000)"
fill="#000000" stroke="none">
<path d="M0 2500 l0 -2500 2500 0 2500 0 0 2500 0 2500 -2500 0 -2500 0 0
-2500z m2780 2364 c779 -100 1465 -611 1790 -1334 296 -658 258 -1441 -100
-2067 -84 -146 -85 -147 -88 -65 -1 37 -9 101 -17 142 -8 41 -19 134 -25 205
-25 293 -123 560 -250 684 -25 24 -72 57 -105 72 -33 16 -94 49 -135 74 -41
24 -131 77 -198 116 -161 92 -312 201 -328 236 -7 15 -55 72 -107 127 -92 95
-96 98 -128 91 -66 -14 -144 -70 -273 -193 -135 -130 -396 -511 -431 -629 -6
-23 -25 -32 -25 -12 0 5 -4 7 -10 4 -5 -3 -10 2 -10 13 0 31 -108 104 -159
107 -29 2 -35 -2 -47 -30 -7 -18 -34 -50 -58 -71 -51 -44 -183 -196 -214 -246
-33 -54 -94 -209 -101 -257 -6 -43 -8 -46 -56 -64 -178 -69 -178 -69 -196
-127 -10 -35 -23 -56 -36 -61 -28 -10 -43 -55 -41 -119 3 -76 -10 -263 -21
-308 -5 -20 -19 -62 -31 -92 -28 -71 -31 -191 -7 -242 26 -56 38 -61 121 -56
87 6 169 42 224 98 18 19 49 51 68 70 19 20 40 54 46 75 9 31 13 35 16 18 3
-20 -20 -70 -73 -158 -26 -42 -31 -60 -15 -50 14 8 25 -45 13 -64 -8 -12 -33
-17 -104 -21 -68 -4 -93 -8 -92 -17 5 -23 -87 -15 -143 11 -42 19 -55 32 -74
71 -13 27 -27 76 -31 109 -5 41 -7 3 -5 -111 1 -95 -1 -173 -4 -173 -4 0 -54
31 -111 69 -467 309 -810 793 -950 1340 -51 201 -64 312 -64 566 0 252 12 352
65 567 158 631 603 1183 1190 1478 414 208 864 283 1330 224z m-486 -2560 c6
-10 12 -20 13 -22 1 -2 10 1 21 7 16 9 21 7 25 -8 7 -28 -11 -55 -28 -41 -18
15 -35 5 -35 -19 0 -21 -23 -44 -33 -34 -4 3 -13 0 -21 -6 -30 -25 -35 -1 -11
46 14 25 25 56 25 68 0 40 25 45 44 9z m-143 -17 c-10 -9 -11 -8 -5 6 3 10 9
15 12 12 3 -3 0 -11 -7 -18z m-19 -183 c-4 -7 -8 22 -9 64 l-1 77 9 -64 c4
-35 5 -70 1 -77z m115 24 c15 -19 -8 -113 -27 -113 -8 0 -20 -4 -27 -8 -15 -9
-25 6 -17 26 3 8 1 18 -4 21 -11 7 6 66 23 78 15 12 42 9 52 -4z m-32 -128 c3
-5 1 -10 -4 -10 -6 0 -11 5 -11 10 0 6 2 10 4 10 3 0 8 -4 11 -10z m-1 -45
c-7 -17 -20 -20 -28 -6 -7 10 3 21 20 21 8 0 11 -6 8 -15z m-63 -84 l24 -19
-31 -74 -31 -74 38 -22 c28 -16 39 -29 39 -46 0 -56 -64 -59 -166 -9 -33 16
-73 33 -89 37 -26 6 -28 6 -15 -7 8 -8 48 -32 88 -52 40 -21 78 -43 85 -49 7
-7 28 -22 48 -34 57 -35 63 -45 44 -82 -15 -28 -20 -31 -47 -26 -17 3 -46 18
-65 32 -18 14 -33 22 -33 18 0 -4 -8 0 -18 9 -10 9 -78 37 -152 63 -137 48
-172 51 -270 27 -22 -6 -24 -5 -11 10 7 10 21 17 30 17 10 0 31 14 48 30 22
21 33 27 36 18 4 -9 17 0 39 25 18 20 38 37 45 37 24 0 23 20 -2 32 -25 11
-25 11 -5 30 11 10 20 23 20 28 0 19 55 10 154 -25 54 -19 102 -32 106 -30 4
2 12 30 19 62 15 64 27 93 40 93 5 0 19 -9 32 -19z m-576 -231 c-3 -5 -10 -10
-16 -10 -5 0 -9 5 -9 10 0 6 7 10 16 10 8 0 12 -4 9 -10z m-104 -123 c-13 -13
-15 1 -4 30 7 17 8 17 11 -1 2 -10 -1 -23 -7 -29z m1057 8 c56 -47 235 -267
223 -274 -16 -10 -273 -36 -361 -36 l-75 0 3 60 c4 55 9 66 60 135 30 41 62
79 69 83 8 5 18 20 23 33 12 30 21 30 58 -1z m-692 -30 c150 -42 158 -45 177
-59 17 -13 17 -17 5 -43 -11 -23 -20 -28 -46 -27 -29 2 -31 0 -21 -18 15 -28
-14 -65 -66 -85 -101 -37 -204 -63 -247 -61 l-48 2 0 35 c0 49 8 58 55 66 52
9 183 44 215 58 22 10 17 12 -45 18 -105 11 -134 19 -151 43 l-16 21 5 -22 c3
-13 1 -23 -4 -23 -5 0 -9 9 -9 19 0 11 -6 21 -12 24 -18 6 -3 19 24 21 15 1
22 7 20 17 -2 16 30 37 59 38 9 1 57 -10 105 -24z m255 -104 c20 -16 22 -23
13 -38 -21 -32 -74 -8 -74 33 0 30 28 32 61 5z m-551 -112 c0 -10 -4 -19 -10
-19 -5 0 -10 -7 -10 -15 0 -8 -4 -15 -10 -15 -5 0 -10 7 -10 15 0 8 -4 15 -10
15 -5 0 -10 5 -10 11 0 6 7 9 14 6 9 -4 13 -1 10 6 -2 7 4 13 16 14 14 1 20
-4 20 -18z m14 -44 c-4 -8 0 -22 7 -31 12 -14 11 -16 -6 -13 -24 5 -32 38 -13
50 18 12 18 11 12 -6z m-72 -7 c6 -17 -1 -38 -13 -38 -5 0 -9 11 -9 25 0 26
14 34 22 13z m18 -84 c0 -19 -16 -10 -31 17 -10 19 -9 20 10 9 12 -6 21 -18
21 -26z m40 6 c0 -5 -4 -10 -10 -10 -5 0 -10 5 -10 10 0 6 5 10 10 10 6 0 10
-4 10 -10z"/>
<path d="M1945 4683 c-186 -13 -264 -41 -382 -135 -106 -84 -158 -154 -208
-282 -50 -126 -60 -301 -25 -406 17 -51 64 -137 143 -261 19 -29 19 -29 -6
-38 -14 -6 -28 -14 -31 -19 -12 -19 125 -302 170 -352 17 -19 47 -66 67 -105
45 -91 120 -183 181 -226 26 -19 87 -63 134 -98 47 -35 99 -67 116 -72 l31 -9
0 -82 c0 -61 5 -92 18 -116 17 -30 20 -32 35 -19 9 8 23 12 30 10 6 -3 12 0
12 6 0 6 33 45 73 87 39 42 108 124 151 183 44 58 106 137 138 174 32 38 58
73 58 78 0 5 9 20 20 31 28 30 63 105 55 118 -3 5 -2 10 4 10 5 0 12 18 16 39
4 22 15 50 26 62 29 34 34 86 15 158 -19 75 -28 89 -59 87 -18 -1 -22 -7 -22
-34 0 -21 -4 -31 -12 -28 -8 3 -10 -1 -6 -12 6 -15 5 -15 -10 -3 -15 12 -17
11 -17 -3 0 -8 11 -18 25 -22 25 -6 31 -15 18 -28 -11 -10 -12 -36 -2 -36 5 0
9 -9 9 -19 0 -11 10 -27 22 -35 20 -14 21 -18 8 -56 -13 -40 -14 -41 -29 -22
-9 11 -29 23 -44 26 -22 5 -33 17 -44 46 -9 22 -20 37 -25 34 -5 -3 -16 0 -25
8 -15 12 -16 9 -10 -29 4 -23 3 -44 -2 -47 -5 -3 -7 -15 -4 -26 4 -14 0 -20
-11 -20 -12 0 -15 -6 -10 -25 4 -18 2 -25 -9 -25 -18 0 -29 -24 -20 -46 3 -9
-3 -21 -16 -30 -11 -8 -21 -24 -21 -34 0 -10 -4 -21 -9 -25 -6 -3 -8 -27 -6
-54 4 -47 3 -49 -53 -107 -31 -32 -61 -59 -65 -59 -4 0 -11 -5 -15 -11 -9 -15
-51 -11 -62 5 -11 19 -71 5 -63 -15 3 -9 -1 -14 -12 -14 -9 0 -13 -4 -10 -10
10 -16 -32 -11 -49 6 -28 27 -66 80 -66 91 0 14 68 41 108 42 34 1 112 44 112
61 0 14 -32 12 -111 -7 -54 -13 -74 -14 -94 -5 -26 12 -43 38 -32 49 9 8 198
74 232 80 17 3 45 16 64 29 27 18 31 25 19 29 -9 4 -25 2 -35 -3 -10 -6 -49
-13 -88 -17 -38 -4 -85 -14 -104 -21 -36 -15 -121 -16 -121 -3 0 5 17 19 38
33 30 19 39 21 45 10 13 -22 27 -16 27 11 0 14 -9 34 -21 46 -11 11 -19 27
-17 36 3 15 73 45 83 35 3 -3 5 0 5 6 0 37 -69 20 -98 -24 -21 -32 -26 -35
-55 -29 -54 12 -64 28 -71 115 -3 43 -15 107 -25 142 -11 35 -22 77 -26 93 -7
37 -56 92 -93 106 -16 6 -54 8 -92 4 -55 -6 -69 -4 -87 12 -25 22 -51 114 -87
315 -4 21 1 34 22 53 36 34 161 97 181 90 20 -6 35 4 51 34 l13 24 12 -24 13
-24 7 28 c6 22 10 25 21 16 10 -8 18 -8 27 -1 7 7 37 16 65 23 29 6 52 14 52
17 0 4 23 7 50 7 32 0 54 5 59 14 6 10 17 11 42 5 19 -5 56 -9 83 -9 l48 0 29
-55 c41 -77 84 -124 106 -116 10 4 14 4 10 0 -9 -9 22 -44 39 -44 7 0 27 -15
43 -32 26 -28 31 -41 31 -83 0 -30 10 -73 26 -110 38 -90 64 -174 64 -206 0
-32 19 -79 32 -79 4 0 8 -11 8 -25 0 -14 5 -25 10 -25 6 0 10 15 10 33 0 17 7
41 15 51 20 26 19 42 -1 25 -13 -10 -17 -10 -25 2 -5 8 -9 22 -9 32 0 9 0 19
0 22 -1 3 -14 35 -29 72 -21 50 -32 100 -41 188 -8 75 -18 126 -28 137 -15 18
-9 54 7 43 6 -3 8 -12 4 -20 -3 -8 0 -15 6 -15 13 0 9 35 -16 134 -38 152
-100 264 -199 356 -59 55 -143 112 -155 104 -5 -3 -9 -1 -9 4 0 24 -165 51
-265 45z m-260 -1132 c-7 -12 -67 -42 -72 -37 -7 6 49 46 64 46 8 0 12 -4 8
-9z m-177 -66 c0 -16 -2 -15 -8 5 -11 34 -11 60 0 35 5 -11 8 -29 8 -40z m343
7 c-6 -11 -7 -33 -1 -58 4 -21 15 -71 24 -110 20 -88 21 -212 2 -236 -13 -18
-46 -25 -46 -10 0 4 -16 24 -35 46 -19 21 -35 41 -35 45 0 9 -79 90 -117 120
-31 24 -35 58 -5 46 10 -4 30 11 59 42 46 52 50 59 31 66 -17 5 26 42 67 57
17 7 37 15 45 20 19 10 24 -3 11 -28z m-136 -20 c-22 -5 -29 3 -21 25 7 17 8
17 22 -2 13 -18 13 -20 -1 -23z m-155 -142 c0 -13 -1 -13 -10 0 -5 8 -10 22
-10 30 0 13 1 13 10 0 5 -8 10 -22 10 -30z m14 -36 c3 -8 2 -12 -4 -9 -6 3
-10 10 -10 16 0 14 7 11 14 -7z m1028 -66 c-9 -9 -12 -7 -12 12 0 19 3 21 12
12 9 -9 9 -15 0 -24z m-22 -57 c0 -6 -4 -12 -8 -15 -5 -3 -9 1 -9 9 0 8 4 15
9 15 4 0 8 -4 8 -9z"/>
<path d="M2694 3955 c-10 -41 1 -53 19 -19 15 30 14 44 -4 44 -5 0 -11 -11
-15 -25z"/>
<path d="M2310 3944 c-7 -8 -21 -12 -34 -8 -27 6 -111 -32 -243 -112 -43 -25
-61 -58 -43 -79 13 -16 20 -13 100 32 140 79 235 100 293 64 68 -42 64 -14 -7
61 -46 47 -57 54 -66 42z"/>
<path d="M2644 3796 c-11 -17 -13 -30 -6 -42 8 -14 12 -12 26 16 9 18 16 37
16 42 0 16 -20 7 -36 -16z"/>
<path d="M2291 3736 c-7 -8 -26 -17 -45 -20 -39 -8 -104 -49 -129 -82 -27 -36
-3 -29 37 11 41 40 47 42 63 16 10 -17 18 -18 44 -11 17 5 44 7 59 4 23 -5 31
-1 45 19 17 27 13 47 -9 47 -8 0 -19 7 -26 15 -15 19 -24 19 -39 1z"/>
<path d="M2715 3630 c-3 -5 -1 -10 4 -10 6 0 11 5 11 10 0 6 -2 10 -4 10 -3 0
-8 -4 -11 -10z"/>
<path d="M2655 3381 c-3 -5 -1 -12 4 -15 5 -3 11 1 15 9 6 16 -9 21 -19 6z"/>
<path d="M2829 3308 c0 -2 -2 -12 -4 -22 -2 -10 -8 -22 -13 -25 -18 -12 -31
-48 -25 -69 3 -12 -1 -30 -8 -40 -12 -16 3 -3 74 61 28 25 28 26 12 51 -10 14
-22 26 -27 26 -5 0 -6 5 -3 10 3 6 4 10 1 10 -3 0 -6 -1 -7 -2z"/>
<path d="M2682 3278 c-17 -17 -15 -38 3 -38 9 0 15 9 15 25 0 29 -1 30 -18 13z"/>
<path d="M2127 3203 c-12 -11 -8 -23 8 -23 8 0 15 7 15 15 0 16 -12 20 -23 8z"/>
<path d="M2173 3178 c-12 -20 -14 -48 -4 -48 14 0 41 41 35 52 -8 12 -22 10
-31 -4z"/>
<path d="M2220 3171 c0 -5 5 -13 10 -16 6 -3 10 -2 10 4 0 5 -4 13 -10 16 -5
3 -10 2 -10 -4z"/>
<path d="M1332 1000 c0 -14 2 -19 5 -12 2 6 2 18 0 25 -3 6 -5 1 -5 -13z"/>
<path d="M2257 2233 c-4 -3 -7 -11 -7 -17 0 -6 5 -5 12 2 6 6 9 14 7 17 -3 3
-9 2 -12 -2z"/>
</g>
</svg>
