<?xml version="1.0" standalone="no"?>
<!DOCTYPE svg PUBLIC "-//W3C//DTD SVG 20010904//EN"
 "http://www.w3.org/TR/2001/REC-SVG-20010904/DTD/svg10.dtd">
<svg version="1.0" xmlns="http://www.w3.org/2000/svg"
 width="900.000000pt" height="900.000000pt" viewBox="0 0 900.000000 900.000000"
 preserveAspectRatio="xMidYMid meet">
<metadata>
Created by potrace 1.10, written by Peter Selinger 2001-2011
</metadata>
<g transform="translate(0.000000,900.000000) scale(0.100000,-0.100000)"
fill="#000000" stroke="none">
<path d="M730 8985 c0 -14 -8 -17 -70 -28 -82 -15 -221 -86 -320 -163 -156
-120 -278 -307 -323 -494 -15 -64 -15 -7556 0 -7620 76 -315 348 -587 663
-663 64 -15 7556 -15 7620 0 191 46 382 174 507 338 65 86 136 230 150 305 11
62 14 70 28 70 13 0 15 446 15 3760 0 3314 -2 3760 -15 3760 -14 0 -17 8 -28
70 -20 108 -116 276 -221 388 -104 111 -298 227 -416 249 -62 11 -70 14 -70
28 0 13 -446 15 -3760 15 -3314 0 -3760 -2 -3760 -15z m5297 -2106 c15 -6 51
-15 78 -19 53 -8 103 -24 147 -46 14 -8 31 -14 38 -14 7 0 32 -13 57 -30 24
-16 48 -30 53 -30 14 0 118 -86 183 -152 58 -58 58 -58 118 -58 34 0 75 6 92
14 18 8 46 16 62 19 17 3 55 15 85 27 30 12 70 25 89 30 18 5 38 13 44 19 6 6
17 11 24 11 7 0 44 14 81 31 37 18 83 38 102 47 19 8 47 21 62 29 66 33 75 0
28 -100 -16 -35 -30 -67 -30 -70 0 -12 -63 -111 -106 -167 -43 -57 -140 -159
-232 -245 -51 -47 -57 -69 -13 -46 11 6 36 11 56 11 19 0 52 7 72 15 19 8 47
15 62 15 23 0 67 12 156 42 17 5 41 12 55 15 14 3 48 16 77 29 28 13 56 24 62
24 16 0 19 -24 6 -50 -6 -14 -20 -43 -31 -65 -44 -95 -186 -249 -350 -382 -76
-62 -104 -92 -105 -115 -9 -241 -19 -403 -28 -443 -9 -45 -18 -104 -40 -270
-4 -27 -10 -56 -15 -63 -5 -8 -12 -39 -16 -70 -5 -32 -14 -77 -20 -102 -21
-83 -42 -155 -55 -190 -7 -19 -21 -62 -30 -95 -28 -95 -46 -147 -63 -185 -8
-19 -22 -51 -30 -70 -8 -19 -21 -51 -29 -70 -35 -84 -75 -170 -93 -200 -5 -8
-11 -22 -14 -30 -4 -8 -20 -37 -37 -65 -16 -27 -36 -64 -44 -82 -17 -36 -170
-264 -224 -334 -123 -157 -170 -210 -318 -356 -90 -90 -168 -163 -174 -163 -5
0 -18 -9 -28 -19 -38 -38 -302 -231 -316 -231 -2 0 -30 -17 -62 -38 -32 -22
-96 -58 -143 -81 -47 -23 -92 -46 -100 -51 -8 -5 -22 -11 -30 -14 -8 -3 -22
-10 -30 -15 -20 -12 -74 -35 -130 -56 -25 -9 -58 -23 -73 -31 -16 -8 -36 -14
-46 -14 -9 0 -25 -6 -36 -13 -11 -7 -47 -21 -80 -31 -33 -10 -73 -22 -90 -28
-16 -5 -52 -14 -78 -19 -27 -4 -54 -12 -60 -17 -7 -5 -28 -12 -47 -15 -19 -3
-60 -11 -90 -17 -241 -50 -302 -59 -480 -73 -287 -22 -694 -12 -804 19 -27 8
-65 14 -84 14 -20 0 -58 6 -86 14 -28 8 -80 22 -116 31 -36 9 -80 23 -98 31
-18 8 -43 14 -57 14 -13 0 -36 6 -52 14 -52 26 -104 46 -118 46 -7 0 -26 6
-42 14 -15 7 -45 21 -66 30 -81 35 -107 47 -237 111 -74 37 -151 76 -170 87
-19 11 -57 32 -83 45 -26 14 -46 30 -44 36 2 7 72 10 213 8 169 -2 218 0 254
13 25 9 73 16 107 16 34 0 74 5 90 11 15 6 48 15 73 19 92 18 167 38 188 49
11 6 31 11 44 11 13 0 33 7 44 15 10 8 27 15 36 15 10 0 34 7 55 16 21 9 54
24 73 32 19 9 51 22 70 30 47 20 98 46 140 71 19 11 49 27 65 36 68 34 228
156 218 165 -11 10 -145 40 -177 40 -15 0 -43 7 -63 15 -19 8 -44 15 -54 15
-10 0 -35 7 -56 16 -90 40 -110 48 -143 63 -19 9 -63 35 -98 59 -35 23 -67 42
-72 42 -4 0 -10 3 -12 8 -1 4 -33 35 -71 69 -90 83 -227 254 -227 283 0 6 -13
29 -30 52 -16 22 -30 48 -30 55 0 8 -6 27 -14 41 -31 60 -39 82 -33 88 4 4 98
6 209 5 112 -1 209 2 216 7 17 11 -10 30 -88 62 -305 126 -537 324 -649 555
-19 39 -40 82 -47 97 -8 14 -14 35 -14 45 0 11 -7 28 -15 39 -8 10 -14 30 -15
44 0 14 -6 45 -14 70 -14 44 -46 237 -46 279 0 27 7 26 67 -3 120 -59 218 -86
309 -86 41 0 74 4 74 8 0 5 -20 23 -44 40 -86 62 -214 236 -260 352 -3 8 -10
22 -15 30 -8 14 -22 49 -55 138 -18 48 -35 115 -47 177 -5 28 -13 70 -18 95
-13 59 -13 353 0 410 6 25 14 63 18 85 4 22 13 50 19 62 7 12 12 30 12 39 0
29 64 154 78 152 7 -2 72 -62 145 -133 72 -72 152 -147 175 -167 24 -20 69
-61 100 -90 32 -30 67 -60 79 -67 12 -6 42 -28 67 -49 63 -53 181 -143 205
-156 11 -6 63 -38 116 -71 99 -62 199 -120 225 -131 8 -3 22 -9 30 -14 17 -10
88 -45 110 -54 8 -3 22 -10 30 -14 44 -25 83 -42 95 -42 7 0 26 -6 42 -14 55
-28 104 -46 121 -46 10 0 26 -6 37 -14 11 -7 34 -16 50 -18 17 -3 44 -10 60
-16 85 -28 135 -42 157 -42 13 0 29 -5 35 -11 5 -5 37 -13 69 -16 32 -3 67
-10 77 -15 9 -5 57 -13 105 -19 48 -5 101 -13 117 -18 17 -5 71 -11 122 -14
106 -5 111 -1 87 65 -22 63 -22 385 0 447 9 24 16 56 16 70 0 15 7 36 15 47 8
10 15 27 15 37 0 16 47 113 83 172 28 46 129 174 174 220 130 135 377 284 538
324 17 4 40 13 52 19 12 7 37 12 55 13 18 0 49 7 68 14 45 17 405 20 447 4z"/>
</g>
</svg>
