<?xml version="1.0" standalone="no"?>
<!DOCTYPE svg PUBLIC "-//W3C//DTD SVG 20010904//EN"
 "http://www.w3.org/TR/2001/REC-SVG-20010904/DTD/svg10.dtd">
<svg version="1.0" xmlns="http://www.w3.org/2000/svg"
 width="900.000000pt" height="900.000000pt" viewBox="0 0 900.000000 900.000000"
 preserveAspectRatio="xMidYMid meet">
<metadata>
Created by potrace 1.10, written by Peter Selinger 2001-2011
</metadata>
<g transform="translate(0.000000,900.000000) scale(0.100000,-0.100000)"
fill="#000000" stroke="none">
<path d="M503 8988 c1 -6 -14 -16 -33 -21 -214 -56 -401 -242 -456 -453 -21
-83 -21 -7965 0 -8048 55 -210 242 -397 452 -452 83 -21 7965 -21 8048 0 211
55 397 242 453 456 5 19 15 34 21 32 9 -1 12 952 12 3988 0 3036 -3 3989 -12
3988 -6 -2 -16 13 -21 32 -55 210 -244 402 -445 454 -27 7 -46 17 -44 24 1 9
-877 12 -3988 12 -3036 0 -3989 -3 -3987 -12z m4452 -1758 c128 -19 251 -43
310 -60 17 -4 57 -16 90 -25 79 -23 159 -52 299 -110 90 -37 230 -108 298
-151 20 -13 40 -24 42 -24 9 0 101 -64 221 -154 134 -100 384 -345 482 -471
63 -81 163 -222 163 -230 0 -2 14 -24 30 -49 36 -52 131 -235 167 -321 138
-324 208 -642 220 -1005 8 -238 -26 -526 -87 -745 -12 -44 -26 -93 -30 -110
-14 -54 -57 -171 -76 -208 -8 -16 -14 -33 -14 -39 0 -10 -119 -253 -143 -293
-7 -10 -23 -37 -37 -60 -14 -22 -27 -45 -30 -50 -15 -31 -109 -162 -176 -245
-170 -212 -368 -393 -614 -562 -36 -24 -72 -47 -80 -51 -8 -4 -37 -21 -65 -37
-27 -17 -102 -55 -165 -86 -63 -30 -123 -59 -132 -64 -64 -36 -349 -122 -503
-153 -224 -45 -276 -50 -540 -50 -263 0 -305 3 -535 49 -130 26 -287 70 -425
122 -56 20 -84 33 -208 92 -118 57 -139 59 -247 25 -25 -7 -74 -21 -110 -30
-36 -9 -87 -23 -115 -30 -27 -7 -79 -20 -115 -30 -36 -9 -87 -22 -115 -29 -27
-8 -79 -21 -115 -30 -36 -10 -87 -23 -115 -31 -27 -7 -79 -21 -115 -30 -36 -9
-87 -23 -115 -30 -49 -13 -93 -25 -225 -59 -36 -10 -79 -22 -96 -27 -17 -5
-36 -9 -42 -9 -16 0 -15 35 2 90 13 42 24 79 62 220 9 30 21 75 29 100 7 25
20 74 30 110 9 36 23 90 32 120 8 30 21 78 29 105 7 28 20 73 28 100 7 28 21
79 31 115 10 36 23 85 30 110 7 25 20 74 30 110 10 36 24 85 31 110 25 83 22
100 -45 236 -35 71 -68 138 -73 148 -6 11 -14 31 -18 45 -5 14 -18 51 -30 81
-12 30 -25 69 -30 85 -5 17 -13 44 -18 60 -68 197 -122 549 -122 785 0 94 29
417 41 446 5 14 9 38 9 53 0 25 10 69 53 231 133 502 453 993 877 1347 291
242 666 435 1023 527 279 71 377 83 677 85 206 1 280 -3 385 -19z"/>
<path d="M4295 6784 c-152 -24 -321 -62 -395 -89 -375 -136 -629 -289 -871
-526 -314 -308 -517 -663 -623 -1094 -45 -185 -51 -244 -51 -515 0 -293 10
-365 89 -650 25 -91 107 -292 152 -375 13 -22 35 -62 49 -90 15 -27 37 -63 49
-80 37 -52 47 -84 37 -119 -5 -17 -16 -57 -25 -88 -39 -141 -47 -171 -61 -223
-39 -140 -48 -173 -60 -215 -7 -25 -20 -74 -29 -110 -10 -36 -21 -77 -26 -92
-13 -43 6 -51 76 -32 32 9 75 20 94 23 19 4 51 13 70 19 19 6 64 18 100 27 36
9 88 23 115 30 28 8 79 21 115 31 36 9 85 22 110 29 132 37 153 39 195 15 86
-49 218 -120 223 -120 3 0 28 -11 57 -24 53 -26 87 -39 190 -73 121 -41 176
-55 370 -94 33 -6 165 -14 294 -16 311 -7 440 11 746 105 104 31 282 109 390
171 334 189 636 481 832 806 29 48 144 286 166 345 201 522 202 1083 1 1610
-28 72 -37 94 -87 195 -35 72 -45 89 -110 195 -158 259 -454 550 -737 722 -84
51 -281 149 -350 173 -194 68 -325 101 -517 130 -130 19 -452 19 -578 -1z
m-455 -996 c39 -28 63 -73 140 -263 18 -44 39 -95 46 -112 15 -34 21 -51 73
-172 35 -84 40 -147 14 -189 -10 -15 -51 -71 -93 -125 -99 -129 -112 -155
-101 -193 14 -49 142 -237 231 -339 67 -78 176 -178 272 -251 53 -41 99 -74
102 -74 3 0 22 -12 43 -26 21 -14 97 -55 170 -90 102 -49 142 -64 177 -64 42
0 47 3 108 73 67 76 125 148 171 210 16 20 41 44 58 52 26 14 35 14 78 1 26
-8 57 -19 67 -24 11 -6 64 -32 119 -58 251 -117 391 -190 412 -212 18 -20 23
-36 23 -81 0 -121 -46 -272 -102 -336 -98 -111 -283 -214 -421 -234 -149 -21
-300 -8 -432 39 -33 12 -73 25 -90 30 -16 4 -55 18 -85 30 -30 12 -67 25 -81
30 -14 4 -34 12 -45 18 -32 17 -153 72 -158 72 -15 0 -285 172 -336 213 -8 7
-49 39 -90 71 -99 78 -351 332 -428 432 -34 43 -81 104 -105 134 -159 201
-280 423 -333 610 -27 92 -26 341 0 420 44 131 111 241 203 334 79 79 120 95
254 95 94 1 110 -2 139 -21z"/>
</g>
</svg>
